<?xml version="1.0" encoding="UTF-8"?>
<svg id="Capa_2" data-name="Capa 2" xmlns="http://www.w3.org/2000/svg" viewBox="0 0 267.98 119.6">
  <defs>
    <style>
      .cls-1 {
        fill: #fee6cf;
      }

      .cls-2 {
        fill: #95785e;
      }

      .cls-3 {
        fill: #72492c;
        fill-rule: evenodd;
      }

      .cls-4 {
        fill: #db6015;
      }

      .cls-5 {
        fill: #774d28;
      }

      .cls-6 {
        fill: #9a7b57;
      }
    </style>
  </defs>
  <g id="Capa_1-2" data-name="Capa 1">
    <g>
      <path class="cls-1" d="m210.55,101.45c-10.74-2.77-20.62-4.55-29.65-5.35-9.02-.8-16.86-.53-23.53.82-6.67,1.34-12.04,3.8-16.11,7.37-4.08,3.56-6.53,8.24-7.36,14.04-.93-5.79-3.4-10.47-7.43-14.04-4.03-3.57-9.38-6.02-16.05-7.37-6.67-1.34-14.51-1.62-23.53-.82-9.03.8-18.91,2.58-29.65,5.35-4.36,1.09-8.73,1.76-13.09,2.02-4.37.25-8.41.1-12.15-.44-3.74-.54-6.99-1.51-9.76-2.89-2.77-1.39-4.68-3.15-5.73-5.29-1.05-2.13-1.11-4.64-.19-7.49.92-2.86,3.23-6.04,6.92-9.57-3.78.42-7.26.17-10.45-.75-3.19-.92-5.83-2.24-7.93-3.96-2.1-1.72-3.54-3.72-4.34-5.98-.8-2.26-.69-4.53.32-6.8,1.01-2.26,3.04-4.38,6.1-6.35,3.06-1.98,7.36-3.55,12.9-4.72-3.36-3.35-5.29-6.59-5.79-9.69-.5-3.1.09-5.91,1.77-8.43,1.67-2.52,4.28-4.66,7.8-6.42,3.53-1.76,7.68-2.98,12.46-3.65,4.79-.67,10.03-.72,15.74-.13,5.7.59,11.58,1.93,17.62,4.03,3.1,1.09,6.73,2.02,10.89,2.77,4.15.75,8.43,1.15,12.83,1.19,4.41.04,8.81-.4,13.22-1.32,4.4-.92,8.47-2.5,12.21-4.72,3.73-2.23,6.97-5.18,9.69-8.87,2.73-3.69,4.59-8.35,5.61-13.97,1.01,5.62,2.87,10.28,5.6,13.97,2.73,3.69,5.96,6.64,9.69,8.87,3.73,2.22,7.8,3.8,12.21,4.72,4.41.92,8.81,1.36,13.21,1.32,4.41-.04,8.66-.44,12.78-1.19,4.11-.76,7.76-1.68,10.95-2.77,6.05-2.09,11.92-3.43,17.62-4.03,5.7-.59,10.95-.54,15.73.13,4.78.67,8.93,1.89,12.46,3.65,3.53,1.77,6.13,3.9,7.81,6.42,1.68,2.52,2.26,5.33,1.76,8.43-.5,3.11-2.43,6.34-5.79,9.69,5.54,1.18,9.84,2.75,12.9,4.72,3.06,1.97,5.1,4.09,6.1,6.35,1.01,2.27,1.11,4.54.32,6.8-.8,2.26-2.25,4.26-4.34,5.98-2.1,1.72-4.74,3.04-7.93,3.96-3.19.92-6.67,1.17-10.45.75,3.69,3.53,6,6.72,6.92,9.57.92,2.85.86,5.35-.19,7.49-1.04,2.14-2.96,3.9-5.73,5.29-2.77,1.39-6.02,2.35-9.75,2.89-3.74.54-7.78.71-12.14.5-4.37-.2-8.73-.9-13.09-2.08Z"/>
      <path class="cls-6" d="m134.39,119.6l-.12-.75c-.45-2.86-1.31-5.48-2.53-7.79-1.22-2.31-2.85-4.37-4.84-6.13-1.99-1.76-4.34-3.27-6.99-4.49-2.64-1.22-5.66-2.17-8.96-2.83-4.15-.84-8.82-1.26-13.88-1.26-3.01,0-6.22.15-9.55.44-8.94.79-18.87,2.58-29.53,5.33-4.32,1.08-8.72,1.76-13.07,2.01-1.36.08-2.71.12-4,.12-2.86,0-5.59-.19-8.13-.56-3.72-.54-7.01-1.51-9.76-2.89-2.77-1.39-4.71-3.18-5.76-5.32-1.05-2.16-1.12-4.7-.19-7.56.9-2.78,3.15-5.93,6.69-9.35-1.07.11-2.12.16-3.14.16-2.46,0-4.81-.32-6.99-.95-3.18-.92-5.85-2.25-7.94-3.98-2.1-1.72-3.57-3.74-4.37-6.01-.8-2.28-.69-4.58.32-6.86,1.01-2.27,3.07-4.42,6.13-6.39,3-1.93,7.27-3.51,12.7-4.68-3.26-3.29-5.16-6.51-5.66-9.57-.51-3.11.09-5.97,1.77-8.5,1.67-2.51,4.31-4.68,7.82-6.43,3.51-1.75,7.71-2.98,12.46-3.65,2.54-.36,5.25-.54,8.05-.54,2.45,0,5.03.14,7.67.41,5.68.59,11.59,1.94,17.6,4.02,3.06,1.08,6.71,2.01,10.84,2.76,4.11.75,8.42,1.15,12.78,1.19h.55c4.18,0,8.42-.44,12.6-1.32,4.35-.91,8.44-2.49,12.14-4.69,3.7-2.2,6.93-5.16,9.63-8.81,2.7-3.65,4.57-8.32,5.56-13.88l.12-.63.12.63c1,5.57,2.86,10.24,5.56,13.88,2.7,3.65,5.93,6.61,9.62,8.81,3.7,2.2,7.78,3.78,12.14,4.69,4.18.87,8.42,1.32,12.6,1.32h.55c4.36-.04,8.64-.44,12.72-1.19,4.09-.75,7.75-1.68,10.9-2.76,6-2.08,11.92-3.43,17.59-4.02,2.64-.27,5.22-.41,7.67-.41,2.8,0,5.5.18,8.04.54,4.75.67,8.94,1.9,12.46,3.65,3.51,1.76,6.14,3.93,7.82,6.43,1.68,2.53,2.28,5.38,1.78,8.5-.5,3.06-2.4,6.28-5.65,9.57,5.42,1.17,9.69,2.75,12.69,4.68,3.06,1.97,5.12,4.13,6.13,6.39,1.01,2.28,1.12,4.58.31,6.86-.79,2.27-2.26,4.29-4.36,6.01-2.1,1.72-4.77,3.06-7.95,3.98-2.18.63-4.53.95-6.99.95-1.02,0-2.07-.05-3.14-.16,3.54,3.43,5.79,6.57,6.69,9.35.93,2.86.86,5.4-.19,7.56-1.05,2.14-2.99,3.94-5.76,5.32-2.76,1.38-6.04,2.35-9.77,2.89-2.69.39-5.57.59-8.58.59-1.15,0-2.35-.03-3.55-.09-4.34-.22-8.74-.91-13.08-2.08-10.66-2.75-20.6-4.54-29.53-5.33-3.33-.29-6.54-.44-9.55-.44-5.06,0-9.73.42-13.88,1.26-3.3.66-6.33,1.61-8.98,2.83-2.66,1.22-5.02,2.72-7.03,4.49-2.01,1.76-3.64,3.82-4.85,6.13-1.21,2.31-2.04,4.93-2.45,7.79l-.11.75Zm-37.32-23.48c5.08,0,9.77.42,13.93,1.26,3.32.67,6.35,1.63,9.01,2.85,2.67,1.23,5.04,2.74,7.04,4.52,2.01,1.78,3.65,3.86,4.89,6.19,1.13,2.14,1.95,4.55,2.43,7.17.45-2.62,1.24-5.02,2.37-7.17,1.23-2.33,2.87-4.42,4.91-6.2,2.02-1.78,4.41-3.3,7.08-4.52,2.67-1.22,5.71-2.18,9.03-2.85,4.16-.84,8.85-1.26,13.92-1.26,3.01,0,6.23.15,9.57.44,8.95.79,18.9,2.59,29.57,5.34,4.32,1.16,8.71,1.86,13.03,2.07,1.2.06,2.39.09,3.54.09,2.99,0,5.87-.19,8.55-.59,3.69-.54,6.96-1.51,9.69-2.87,2.73-1.36,4.63-3.12,5.66-5.22,1.02-2.1,1.09-4.58.18-7.38-.91-2.81-3.22-6-6.87-9.49l-.25-.23.34.03c1.17.13,2.33.2,3.45.2,2.43,0,4.76-.32,6.92-.94,3.14-.91,5.79-2.23,7.86-3.93,2.07-1.69,3.51-3.68,4.29-5.91.78-2.22.68-4.47-.31-6.69-.99-2.22-3.02-4.34-6.05-6.29-3.02-1.95-7.33-3.52-12.82-4.69l-.2-.04.15-.15c3.31-3.31,5.24-6.54,5.74-9.6.5-3.05-.09-5.85-1.74-8.32-1.65-2.48-4.26-4.62-7.73-6.36-3.49-1.74-7.66-2.96-12.39-3.63-2.53-.36-5.23-.53-8.01-.53-2.44,0-5.01.14-7.65.41-5.65.58-11.55,1.93-17.54,4.01-3.16,1.08-6.84,2.01-10.94,2.76-4.09.75-8.38,1.16-12.76,1.2h-.55c-4.2,0-8.45-.44-12.64-1.32-4.39-.92-8.49-2.51-12.22-4.72-3.72-2.21-6.97-5.2-9.69-8.88-2.61-3.54-4.46-8.03-5.49-13.37-1.03,5.33-2.87,9.83-5.49,13.37-2.71,3.68-5.97,6.67-9.69,8.88-3.73,2.21-7.83,3.8-12.21,4.72-4.19.88-8.45,1.32-12.65,1.32h-.55c-4.38-.04-8.69-.44-12.82-1.2-4.14-.75-7.8-1.67-10.87-2.76-5.99-2.08-11.89-3.43-17.54-4.01-2.63-.27-5.21-.41-7.65-.41-2.78,0-5.48.17-8.01.53-4.74.67-8.91,1.88-12.39,3.63-3.48,1.75-6.08,3.88-7.74,6.36-1.65,2.47-2.23,5.28-1.74,8.32.5,3.06,2.43,6.29,5.74,9.6l.15.15-.21.04c-5.49,1.16-9.81,2.74-12.82,4.69-3.02,1.95-5.05,4.07-6.04,6.29-.99,2.23-1.09,4.47-.31,6.69.78,2.23,2.23,4.22,4.29,5.91,2.07,1.7,4.72,3.02,7.86,3.93,2.16.62,4.49.94,6.92.94,1.11,0,2.28-.07,3.45-.2l.34-.03-.25.23c-3.65,3.49-5.96,6.68-6.87,9.49-.91,2.79-.84,5.28.18,7.38,1.03,2.1,2.93,3.86,5.66,5.22,2.73,1.37,5.99,2.33,9.69,2.87,2.53.37,5.26.55,8.1.55,1.29,0,2.63-.03,3.99-.11,4.34-.25,8.72-.93,13.03-2.01,10.67-2.75,20.62-4.54,29.57-5.33,3.34-.29,6.55-.44,9.57-.44Z"/>
      <path class="cls-2" d="m130.92,18.43l-.35-.26c-2.72,3.68-5.99,6.67-9.72,8.9-3.71,2.2-7.79,3.78-12.14,4.69-4.1.86-8.27,1.29-12.39,1.29h-.53c-4.26-.04-8.45-.43-12.47-1.17-4.03-.73-7.6-1.64-10.6-2.7l-.28.82h.01l.29-.81c-5.56-1.93-11.03-3.18-16.27-3.72-2.45-.25-4.81-.38-7.09-.38-2.58,0-5.05.16-7.37.49h0c-4.3.6-8.07,1.7-11.23,3.28h0c-3.01,1.5-5.26,3.33-6.67,5.44h0c-.51.76-.89,1.55-1.14,2.38-.25.83-.38,1.69-.38,2.59,0,.55.05,1.11.14,1.7.21,1.29.74,2.62,1.57,3.98.83,1.36,1.97,2.75,3.39,4.18l3,2.99.3-.3-.08-.42-4.14.88c-4.99,1.06-8.88,2.47-11.6,4.22-1.28.82-2.34,1.66-3.19,2.53-.85.87-1.49,1.76-1.9,2.68-.42.95-.64,1.9-.64,2.84,0,.75.13,1.48.39,2.22.32.92.77,1.78,1.36,2.58.59.81,1.31,1.56,2.17,2.26,1.79,1.47,4.1,2.61,6.85,3.4h0c1.9.55,3.95.83,6.11.83,1,0,2.02-.06,3.06-.17l6.76-.76-.05-.43-.3-.31-4.91,4.7c-1.62,1.54-2.93,3.01-3.95,4.39-1.01,1.38-1.73,2.68-2.12,3.9-.35,1.07-.53,2.07-.53,2.99,0,.98.2,1.88.6,2.71.41.83,1,1.6,1.77,2.29.77.7,1.71,1.32,2.81,1.87,2.44,1.22,5.36,2.08,8.67,2.56,2.33.34,4.83.51,7.46.51,1.2,0,2.42-.03,3.68-.1h0c4.01-.24,8.07-.86,12.05-1.86l-.21-.84h-.02s.22.84.22.84c10.23-2.64,19.78-4.36,28.37-5.12,3.21-.29,6.29-.43,9.21-.43,4.99,0,9.54.41,13.61,1.23,6.64,1.34,12.04,3.84,16.07,7.41,2.27,2.01,4.06,4.37,5.37,7.07l.39.8.38-.81c1.31-2.69,3.1-5.06,5.4-7.07,4.06-3.56,9.48-6.06,16.12-7.4,4.07-.82,8.62-1.23,13.61-1.23,2.93,0,6,.14,9.21.43,8.59.76,18.14,2.47,28.38,5.11h0,.03s0,0,0,0h0c3.98,1.08,8.02,1.72,12,1.9,1.11.06,2.19.09,3.26.09,2.78,0,5.42-.18,7.89-.54,3.32-.48,6.23-1.34,8.68-2.56,1.11-.55,2.05-1.17,2.81-1.87.77-.69,1.37-1.46,1.77-2.29.4-.83.6-1.73.6-2.71,0-.93-.18-1.92-.52-2.99-.4-1.22-1.11-2.52-2.12-3.9-1.01-1.38-2.33-2.84-3.95-4.39l-4.91-4.69-.3.31-.05.43,6.75.76c1.04.12,2.07.17,3.06.17,2.16,0,4.21-.27,6.1-.83,2.75-.79,5.06-1.93,6.85-3.4.86-.7,1.58-1.45,2.17-2.26.59-.8,1.04-1.66,1.36-2.58.26-.74.4-1.48.4-2.23,0-.95-.22-1.89-.64-2.83-.41-.91-1.05-1.8-1.89-2.68-.85-.87-1.92-1.71-3.2-2.53-2.71-1.75-6.61-3.16-11.59-4.22l-4.14-.88-.09.42.3.3,2.99-2.99c1.42-1.43,2.56-2.82,3.39-4.18.83-1.36,1.36-2.68,1.57-3.97.09-.58.14-1.14.14-1.7,0-.9-.12-1.76-.38-2.59-.25-.82-.63-1.62-1.14-2.38-1.41-2.12-3.67-3.94-6.68-5.44-3.15-1.58-6.92-2.68-11.22-3.28-2.33-.32-4.79-.49-7.37-.49-2.28,0-4.64.12-7.08.38-5.24.54-10.72,1.79-16.27,3.72-3.08,1.05-6.66,1.96-10.64,2.69-3.98.74-8.16,1.13-12.42,1.17h-.53c-4.12,0-8.28-.43-12.38-1.29-4.35-.91-8.44-2.49-12.13-4.69-3.74-2.23-7.01-5.22-9.72-8.9-1.34-1.81-2.48-3.86-3.41-6.14l-.4-.98-.4.98c-.93,2.28-2.07,4.33-3.41,6.14l.35.26.35.25c1.38-1.87,2.56-3.99,3.51-6.33l-.4-.16-.4.16c.96,2.34,2.13,4.46,3.51,6.33,2.78,3.77,6.14,6.84,9.98,9.12,3.78,2.26,7.96,3.87,12.4,4.8,4.16.87,8.38,1.31,12.56,1.31.18,0,.36,0,.54,0,4.31-.04,8.54-.44,12.57-1.18,4.02-.73,7.63-1.65,10.77-2.73,5.51-1.9,10.91-3.14,16.08-3.67,2.41-.25,4.75-.37,6.99-.37,2.55,0,4.97.16,7.25.48,4.22.6,7.91,1.68,10.96,3.2,2.91,1.46,5.04,3.2,6.35,5.16.46.69.8,1.41,1.03,2.15.23.74.34,1.51.34,2.33,0,.5-.04,1.02-.13,1.56-.18,1.15-.67,2.38-1.46,3.66-.78,1.29-1.87,2.63-3.26,4.03l-2.99,2.99-.57.56.78.16,4.13.88c4.93,1.04,8.74,2.43,11.31,4.09,1.23.8,2.25,1.6,3.04,2.41.8.81,1.37,1.62,1.73,2.43.37.85.56,1.67.56,2.48,0,.64-.12,1.28-.35,1.94-.3.85-.71,1.62-1.25,2.36-.54.74-1.21,1.43-2.02,2.1-1.68,1.37-3.88,2.47-6.54,3.24-1.82.53-3.78.79-5.87.79-.96,0-1.95-.06-2.97-.17l-6.75-.76-1.27-.14.93.88,4.91,4.69c1.59,1.52,2.87,2.95,3.84,4.28.98,1.33,1.64,2.56,2,3.65.33,1,.48,1.91.48,2.73,0,.86-.17,1.62-.52,2.33-.35.72-.88,1.4-1.57,2.03-.7.63-1.57,1.21-2.62,1.74-2.34,1.17-5.17,2-8.41,2.48-2.42.35-5.03.53-7.77.53-1.05,0-2.12-.02-3.22-.08-3.92-.19-7.89-.82-11.82-1.88h-.03s0,0,0,0c-10.28-2.65-19.87-4.38-28.52-5.14-3.23-.29-6.33-.43-9.29-.43-5.03,0-9.64.41-13.78,1.24-6.75,1.36-12.32,3.91-16.52,7.6-2.38,2.08-4.25,4.54-5.61,7.35l.39.19.39-.19c-1.36-2.8-3.22-5.25-5.58-7.33-4.16-3.7-9.72-6.25-16.47-7.61-4.13-.83-8.75-1.24-13.78-1.24-2.95,0-6.05.14-9.29.43-8.65.77-18.24,2.49-28.51,5.14l.22.84h.01s-.21-.84-.21-.84c-3.94.99-7.94,1.61-11.9,1.84h0c-1.24.07-2.45.1-3.63.1-2.59,0-5.06-.17-7.33-.5-3.25-.47-6.08-1.31-8.41-2.48-1.05-.53-1.92-1.11-2.62-1.74-.7-.63-1.22-1.31-1.57-2.03-.34-.7-.52-1.47-.52-2.33,0-.82.16-1.72.49-2.73.35-1.1,1.02-2.32,2-3.65.98-1.33,2.27-2.76,3.85-4.27l4.92-4.7.92-.88-1.27.14-6.76.76c-1.01.11-2,.17-2.97.17-2.09,0-4.06-.26-5.87-.79h0c-2.66-.77-4.86-1.87-6.54-3.25-.81-.66-1.48-1.36-2.02-2.09-.54-.74-.96-1.52-1.25-2.37-.23-.65-.34-1.29-.34-1.93,0-.81.19-1.63.57-2.49.36-.81.93-1.61,1.73-2.43.8-.81,1.81-1.62,3.04-2.41,2.58-1.66,6.38-3.05,11.31-4.09l4.14-.88.78-.16-.56-.56-2.99-2.99c-1.39-1.39-2.48-2.72-3.27-4.02-.78-1.28-1.27-2.51-1.46-3.66-.09-.54-.13-1.05-.13-1.56,0-.82.11-1.59.35-2.33.23-.74.57-1.46,1.03-2.15h0c.65-.98,1.51-1.9,2.56-2.76,1.06-.86,2.32-1.66,3.78-2.39h0c3.05-1.52,6.74-2.6,10.96-3.19h0c2.28-.32,4.71-.48,7.25-.48,2.25,0,4.58.12,6.99.37,5.17.54,10.58,1.77,16.08,3.67l.29-.81h-.02s-.28.81-.28.81c3.06,1.08,6.66,2,10.73,2.73,4.07.74,8.31,1.14,12.62,1.18.18,0,.36,0,.54,0,4.18,0,8.4-.44,12.56-1.31,4.44-.93,8.61-2.54,12.4-4.8,3.83-2.28,7.19-5.35,9.98-9.12l-.35-.25"/>
      <g>
        <path class="cls-5" d="m76.35,56.84v30.07h-.88v-7.96h-10.83l-3.99,7.96h-1.07l4.48-8.9v-.19h.08l10.55-20.99h1.66Zm-11.15,20.99h10.26v-20.42l-10.26,20.42Z"/>
        <path class="cls-5" d="m79.65,56.84v28.94h11.31v1.13h-12.21v-30.07h.9Z"/>
      </g>
      <path class="cls-5" d="m96.13,86.91h-1v-30.07h9.33c1.9,0,3.53.77,4.88,2.3,1.34,1.54,2.02,3.39,2.02,5.55s-.67,4.01-2.02,5.52c-1.36,1.54-2.98,2.31-4.88,2.31h-8.34v14.39Zm0-15.52h8.34c1.63,0,3.02-.65,4.18-1.97,1.16-1.31,1.74-2.89,1.74-4.73s-.58-3.44-1.74-4.75c-1.16-1.31-2.55-1.97-4.18-1.97h-8.34v13.42Z"/>
      <path class="cls-5" d="m124.1,56.58v20.96h-.88v-5.55h-10.82l-3.99,5.55h-1.06l4.47-6.21v-.12h.08l10.53-14.63h1.66Zm-11.13,14.63h10.25v-14.23l-10.25,14.23Z"/>
      <path class="cls-5" d="m145.44,56.84v30.07h-1.41l-13.75-28.94v28.94h-.9v-30.07h1.4l13.77,28.97v-28.97h.9Z"/>
      <path class="cls-5" d="m159.87,86.91h-1v-30.07h9.33c1.9,0,3.53.77,4.88,2.3,1.34,1.54,2.02,3.39,2.02,5.55s-.67,4.01-2.02,5.52c-1.36,1.54-2.99,2.31-4.88,2.31h-8.34v14.39Zm0-15.52h8.34c1.63,0,3.02-.65,4.18-1.97,1.15-1.31,1.74-2.89,1.74-4.73s-.58-3.44-1.74-4.75c-1.16-1.31-2.56-1.97-4.18-1.97h-8.34v13.42Z"/>
      <path class="cls-5" d="m187.84,56.58v20.96h-.88v-5.55h-10.82l-3.99,5.55h-1.06l4.47-6.21v-.12h.08l10.53-14.63h1.66Zm-11.14,14.63h10.25v-14.23l-10.25,14.23Z"/>
      <path class="cls-5" d="m209.19,56.84v30.07h-1.42l-13.74-28.94v28.94h-.9v-30.07h1.4l13.76,28.97v-28.97h.9Z"/>
      <rect class="cls-4" x="149.87" y="70.83" width="3.09" height="3.09"/>
      <g>
        <path class="cls-5" d="m78.73,47c-.42.55-.96,1.01-1.61,1.39-.71.4-1.39.6-2.06.6-.76,0-1.4-.32-1.92-.97-.47-.58-.7-1.25-.7-2.02v-.6c0-.83.26-1.82.79-2.98.56-1.21,1.23-2.21,2.02-3.01.91-.92,1.82-1.38,2.72-1.38.2,0,.45.07.75.22.35.17.53.36.53.56,0,.14-.06.26-.17.35-.11.1-.23.14-.36.14-.02,0-.18-.06-.46-.19-.28-.13-.51-.19-.7-.19-.92,0-1.9.85-2.93,2.56-.97,1.6-1.45,2.94-1.45,4.02,0,.76.12,1.39.36,1.89.3.63.75.94,1.37.94.52,0,1.11-.2,1.79-.59,1-.58,1.87-1.55,2.59-2.91.11-.22.24-.33.37-.33.12,0,.22.12.27.35-.03.17-.21.54-.55,1.12-.29.5-.52.85-.67,1.04"/>
        <path class="cls-5" d="m81.42,45.15c-.1.09-.21.36-.32.81-.11.45-.17.84-.17,1.17,0,.44.29.65.86.65s1.19-.32,1.93-.96c.72-.62,1.21-1.26,1.49-1.92h.27c.11.1.14.19.11.28-.32.93-.86,1.71-1.61,2.32-.72.59-1.43.89-2.15.89-.54,0-.93-.18-1.21-.55-.27-.35-.38-.82-.35-1.41.04-.83.49-1.86,1.33-3.1.9-1.32,1.73-1.98,2.48-1.98.25,0,.44.12.57.35.1.17.15.35.15.54,0,.54-.23,1.17-.69,1.87-.54.85-1.17,1.28-1.87,1.28-.33,0-.59-.07-.76-.22l-.04-.02Zm2.54-3.21c-.21.05-.4.18-.57.39-1.16,1.35-1.73,2.14-1.73,2.36,0,.06.13.1.39.12.43.02.9-.29,1.41-.93.5-.63.75-1.19.75-1.68,0-.21-.08-.29-.24-.25"/>
        <path class="cls-5" d="m87.49,45.59l.14-.25c1.19-2.02,2.04-3.03,2.54-3.03s.79.35.94,1.05c.05.53.1,1.05.15,1.58.09.87.14,1.36.16,1.48.13.77.31,1.16.56,1.16.11,0,.25-.1.43-.29l.31.1c.01.21-.08.39-.28.53-.15.11-.29.16-.42.16-.8,0-1.29-.9-1.48-2.71-.04-.43-.09-1.01-.17-1.75-.06-.46-.14-.68-.24-.68-.19,0-.65.59-1.39,1.75-.74,1.16-1.26,2.25-1.57,3.23-.08.26-.22.4-.41.4-.25,0-.36-.12-.34-.37,0-.09.18-1.27.54-3.53.01-.28.04-.67.08-1.17.05-.45.21-.68.5-.68.17,0,.28.06.34.18.03.13.07.25.1.37l-.49,2.48Z"/>
        <path class="cls-5" d="m94.72,42.86c.25-.06.55-.09.9-.09.16,0,.35.06.57.17.28.16.42.34.42.55,0,.04,0,.07-.02.11v.02s-.02.01-.04.07c-.06.02-.08.04-.07.04h-.02s-.07.02-.12.02c-.03,0-.08-.03-.13-.09-.11-.27-.3-.4-.55-.4-.09,0-.19.02-.3.05-.23.06-.47.17-.72.32,0,.03,0,.07,0,.13-.07.56-.09,1.24-.06,2.03.05,1.47.39,2.2.99,2.2.17,0,.33-.09.47-.27.14-.17.25-.27.3-.27.17,0,.27.09.27.25,0,.2-.16.39-.49.57-.27.15-.47.22-.61.22-.5,0-.91-.27-1.21-.82-.21-.39-.34-.83-.39-1.31-.09-.84-.09-1.68-.01-2.51-.31.11-.68.33-1.13.65-.06.04-.11.07-.16.07-.15,0-.22-.16-.22-.47,0-.19.46-.5,1.38-.94.06-.01.11-.02.17-.04.04-.38.1-.94.18-1.69.08-.75.27-1.12.56-1.12.24,0,.36.16.38.46l-.34,2.07Z"/>
        <path class="cls-5" d="m98.55,43.83c.69-1.75,1.42-2.63,2.21-2.63.52,0,.83.24.91.72.05.29-.04.43-.28.43-.08,0-.13-.03-.17-.1-.02-.05-.04-.12-.07-.21l-.02-.09c-.02-.11-.09-.17-.22-.17-.27,0-.62.29-1.04.86-.49.68-.84,1.31-1.04,1.87-.21.6-.31,1.29-.3,2.06,0,.03.02.48.06,1.36,0,.11-.06.2-.16.29-.11.09-.21.14-.32.14-.31,0-.45-.24-.41-.72.1-1.12.15-2.05.15-2.8s-.05-1.64-.15-2.61c0-.11.04-.22.14-.34.11-.12.21-.17.32-.17.18,0,.32.09.4.27.06.13.08.26.06.37-.07.59-.1,1.07-.1,1.47"/>
        <path class="cls-5" d="m102.4,48.39c-.48.04-.87-.12-1.16-.49-.26-.33-.4-.75-.4-1.26,0-.85.2-1.78.61-2.77.4-1,.78-1.5,1.14-1.5.32,0,.48.14.48.41,0,.08-.09.24-.27.48-.88,1.15-1.32,2.23-1.32,3.24,0,.87.22,1.3.65,1.3.65,0,1.29-.6,1.92-1.79.55-1.03.82-1.86.82-2.49,0-.9-.22-1.36-.68-1.36-.34,0-.71.18-1.1.55l-.12-.08c-.08-.04-.12-.11-.12-.2,0-.19.2-.38.6-.57.33-.16.58-.24.74-.24.9,0,1.36.69,1.4,2.08.02.68-.28,1.56-.89,2.66-.71,1.28-1.48,1.96-2.32,2.03"/>
        <path class="cls-5" d="m115.55,44.97l-.31.38c-1.77,2.26-3.07,3.39-3.88,3.39h-.16c-.55,0-.83-.29-.83-.85,0-.47.25-1.18.74-2.15.52-1.04,1.11-1.91,1.78-2.63.79-.85,1.52-1.28,2.19-1.28.26,0,.52.09.78.28.11-.61.27-1.49.49-2.64.21-1.11.44-1.67.69-1.67.1,0,.2.04.3.13.1.09.16.19.16.31,0,.03-.07.27-.21.73-.71,2.41-1.06,4.72-1.06,6.93,0,1.28.19,1.92.58,1.92.02-.01.06-.04.12-.07.06-.03.18-.1.36-.18.09.09.14.19.14.28,0,.13-.09.24-.25.35-.15.1-.3.14-.43.14-.8,0-1.2-.93-1.2-2.78v-.6Zm-.38-2.56c-.62-.11-1.5.63-2.62,2.23-1.06,1.51-1.6,2.59-1.6,3.22,0,.16.06.23.18.23.49,0,1.3-.58,2.46-1.74,1.04-1.05,1.66-1.8,1.85-2.25.12-.27.18-.58.18-.92,0-.17-.05-.34-.14-.49-.09-.16-.2-.25-.32-.28"/>
        <path class="cls-5" d="m119.53,45.15c-.1.09-.2.36-.32.81-.11.45-.17.84-.17,1.17,0,.44.29.65.86.65s1.19-.32,1.93-.96c.72-.62,1.21-1.26,1.49-1.92h.27c.11.1.14.19.11.28-.32.93-.86,1.71-1.62,2.32-.72.59-1.43.89-2.15.89-.53,0-.94-.18-1.21-.55-.27-.35-.39-.82-.35-1.41.04-.83.49-1.86,1.33-3.1.9-1.32,1.73-1.98,2.47-1.98.25,0,.44.12.57.35.1.17.15.35.15.54,0,.54-.23,1.17-.69,1.87-.54.85-1.17,1.28-1.87,1.28-.34,0-.59-.07-.77-.22l-.03-.02Zm2.54-3.21c-.21.05-.4.18-.58.39-1.15,1.35-1.73,2.14-1.73,2.36,0,.06.13.1.38.12.43.02.91-.29,1.42-.93.5-.63.75-1.19.75-1.68,0-.21-.08-.29-.24-.25"/>
        <path class="cls-5" d="m134.2,47c-.43.55-.97,1.01-1.62,1.39-.7.4-1.39.6-2.06.6-.76,0-1.4-.32-1.91-.97-.47-.58-.7-1.25-.7-2.02v-.6c0-.83.26-1.82.79-2.98.55-1.21,1.23-2.21,2.02-3.01.91-.92,1.82-1.38,2.72-1.38.2,0,.45.07.75.22.35.17.52.36.52.56,0,.14-.05.26-.16.35s-.23.14-.36.14c-.03,0-.18-.06-.46-.19-.28-.13-.51-.19-.7-.19-.92,0-1.89.85-2.93,2.56-.97,1.6-1.45,2.94-1.45,4.02,0,.76.12,1.39.36,1.89.3.63.75.94,1.36.94.52,0,1.11-.2,1.79-.59,1.01-.58,1.87-1.55,2.59-2.91.12-.22.24-.33.37-.33.13,0,.22.12.27.35-.02.17-.21.54-.55,1.12-.29.5-.52.85-.67,1.04"/>
        <path class="cls-5" d="m140.46,47.66c-.53-.19-.79-.8-.79-1.85v-.34c-.55.73-1.15,1.4-1.81,2.01-.85.78-1.51,1.16-2,1.16-.16,0-.3-.04-.41-.13-.2-.15-.3-.39-.3-.73,0-.69.37-1.63,1.12-2.8.72-1.13,1.51-2.05,2.36-2.78.93-.79,1.62-1.04,2.07-.75.21.14.32.42.32.84,0,.51-.17.78-.52.81-.25.02-.37-.07-.37-.26,0-.03,0-.05.01-.07.11-.26.16-.49.15-.7,0-.12-.01-.18-.04-.17-.55.1-1.44.95-2.67,2.54-1.23,1.6-1.84,2.69-1.84,3.3,0,.21.09.32.28.32.48,0,1.24-.62,2.27-1.87.72-.86,1.11-1.34,1.17-1.44.32-.44.5-.84.54-1.21.03-.25.16-.38.4-.38.34,0,.47.16.4.49-.27,1.42-.4,2.29-.4,2.6,0,.57.12.88.37.95.09.02.19,0,.28-.05.08-.05.13-.1.14-.15.06-.24.19-.36.41-.36.14,0,.2.07.2.22,0,.06-.02.14-.05.23-.17.43-.49.65-.94.65-.12,0-.25-.02-.38-.07"/>
        <path class="cls-5" d="m143.96,44.2c1.14-1.65,2.26-2.47,3.38-2.47.74,0,1.11.53,1.11,1.58,0,.87-.39,1.84-1.16,2.89-.8,1.1-1.58,1.65-2.32,1.65-.56,0-.84-.28-.84-.85,0-.18.06-.4.17-.68h.35c.01.12,0,.24-.02.36-.02.14-.03.26-.03.34,0,.13.07.19.22.19.7,0,1.39-.56,2.04-1.68.58-.98.87-1.79.87-2.41,0-.56-.15-.84-.45-.84-.6,0-1.3.5-2.11,1.48-.73.89-1.16,1.63-1.28,2.21-.21,1-.32,2.16-.33,3.49-.02,1.86.25,2.79.81,2.79,0,0,.03,0,.09-.03.05-.02.19-.07.42-.15v.32c0,.11-.09.2-.27.27-.14.07-.25.1-.32.09-.47-.04-.83-.38-1.08-1.01-.19-.49-.3-1.07-.32-1.73-.01-.31-.02-.63-.02-.96,0-1.18.14-3.25.41-6.21.08-.81.31-1.21.71-1.21.25,0,.37.14.37.41,0,.03,0,.07,0,.1l-.4,2.08Z"/>
        <path class="cls-5" d="m153.56,47.66c-.53-.19-.79-.8-.79-1.85v-.34c-.55.73-1.15,1.4-1.81,2.01-.85.78-1.51,1.16-2,1.16-.16,0-.3-.04-.42-.13-.2-.15-.3-.39-.3-.73,0-.69.37-1.63,1.11-2.8.72-1.13,1.51-2.05,2.36-2.78.93-.79,1.62-1.04,2.07-.75.21.14.32.42.32.84,0,.51-.17.78-.52.81-.24.02-.37-.07-.37-.26,0-.03,0-.05.02-.07.11-.26.16-.49.15-.7,0-.12-.01-.18-.04-.17-.55.1-1.44.95-2.66,2.54-1.23,1.6-1.85,2.69-1.85,3.3,0,.21.09.32.28.32.49,0,1.24-.62,2.27-1.87.72-.86,1.11-1.34,1.17-1.44.32-.44.5-.84.54-1.21.03-.25.16-.38.4-.38.34,0,.47.16.41.49-.27,1.42-.41,2.29-.41,2.6,0,.57.12.88.37.95.09.02.18,0,.28-.05.08-.05.13-.1.14-.15.05-.24.19-.36.42-.36.13,0,.2.07.2.22,0,.06-.02.14-.05.23-.17.43-.48.65-.93.65-.12,0-.25-.02-.37-.07"/>
        <path class="cls-5" d="m160.67,42.68c-.13,0-.29-.1-.47-.3-.19-.2-.38-.3-.57-.3-.68,0-1.38.63-2.09,1.89-.63,1.12-.94,1.98-.94,2.61,0,.7.29,1.05.88,1.05s1.16-.19,1.73-.57c.52-.36.98-.82,1.36-1.41.03-.06.08-.09.13-.09.07,0,.13.05.19.14.06.09.09.16.07.21-.04.18-.35.55-.93,1.12-.53.51-.85.8-.96.86-.55.3-.89.45-1.03.45-.02,0-.09,0-.22.02-.13.01-.2.02-.21.02-.58,0-1.01-.21-1.31-.62-.25-.34-.37-.78-.37-1.29,0-.81.37-1.81,1.1-2.98.84-1.35,1.74-2.03,2.68-2.03.16,0,.4.07.71.21.4.18.62.39.63.65.01.11-.03.2-.13.27-.09.07-.18.1-.25.1"/>
        <path class="cls-5" d="m163.33,48.56c-.52,0-.93-.41-1.21-1.23-.19-.57-.29-1.12-.29-1.65,0-.5.06-1.1.18-1.82.18-1.05.43-1.57.75-1.57.25,0,.37.14.37.43,0,.14-.08.39-.23.75-.16.4-.28,1.08-.35,2.04.01.46.01.73,0,.81l.22,1.03c.14.46.36.68.64.68.07,0,.11,0,.13-.03.07-.11.18-.19.32-.26.12.1.17.2.17.28,0,.15-.1.28-.29.39-.16.09-.29.14-.42.14m-.5-8.22c-.12,0-.23-.05-.31-.16-.09-.11-.13-.2-.13-.3,0-.11.04-.22.13-.34.09-.11.19-.17.33-.17.29,0,.43.16.43.47s-.15.48-.45.48"/>
        <path class="cls-5" d="m166.21,42.86c.25-.06.55-.09.9-.09.16,0,.35.06.57.17.29.16.43.34.43.55,0,.04-.01.07-.02.11v.02s-.02.01-.04.07c-.06.02-.08.04-.06.04h-.02s-.07.02-.12.02c-.04,0-.08-.03-.13-.09-.11-.27-.29-.4-.55-.4-.09,0-.19.02-.3.05-.23.06-.47.17-.72.32,0,.03,0,.07,0,.13-.07.56-.09,1.24-.06,2.03.06,1.47.39,2.2.99,2.2.17,0,.33-.09.47-.27.14-.17.25-.27.3-.27.18,0,.27.09.27.25,0,.2-.16.39-.49.57-.27.15-.47.22-.6.22-.5,0-.91-.27-1.21-.82-.21-.39-.34-.83-.39-1.31-.09-.84-.09-1.68-.02-2.51-.31.11-.68.33-1.12.65-.06.04-.11.07-.16.07-.15,0-.23-.16-.23-.47,0-.19.46-.5,1.37-.94.06-.01.11-.02.17-.04.04-.38.1-.94.18-1.69.08-.75.27-1.12.56-1.12.24,0,.37.16.38.46l-.34,2.07Z"/>
        <path class="cls-5" d="m174.32,47.66c-.53-.19-.8-.8-.8-1.85v-.34c-.55.73-1.15,1.4-1.81,2.01-.85.78-1.51,1.16-2,1.16-.16,0-.3-.04-.41-.13-.2-.15-.3-.39-.3-.73,0-.69.37-1.63,1.11-2.8.72-1.13,1.51-2.05,2.36-2.78.93-.79,1.62-1.04,2.07-.75.21.14.32.42.32.84,0,.51-.17.78-.52.81-.25.02-.37-.07-.37-.26,0-.03,0-.05.01-.07.11-.26.15-.49.15-.7,0-.12-.01-.18-.04-.17-.55.1-1.44.95-2.67,2.54-1.23,1.6-1.84,2.69-1.84,3.3,0,.21.09.32.28.32.48,0,1.24-.62,2.27-1.87.72-.86,1.11-1.34,1.17-1.44.32-.44.5-.84.54-1.21.02-.25.16-.38.4-.38.34,0,.47.16.41.49-.27,1.42-.41,2.29-.41,2.6,0,.57.13.88.38.95.09.02.18,0,.28-.05.09-.05.13-.1.14-.15.06-.24.19-.36.41-.36.14,0,.2.07.2.22,0,.06-.02.14-.05.23-.17.43-.49.65-.94.65-.12,0-.25-.02-.37-.07"/>
        <path class="cls-5" d="m181.43,42.68c-.13,0-.29-.1-.48-.3-.19-.2-.38-.3-.57-.3-.68,0-1.38.63-2.09,1.89-.63,1.12-.94,1.98-.94,2.61,0,.7.29,1.05.88,1.05s1.16-.19,1.73-.57c.53-.36.98-.82,1.36-1.41.03-.06.08-.09.14-.09.06,0,.13.05.19.14.06.09.09.16.07.21-.05.18-.36.55-.93,1.12-.53.51-.85.8-.97.86-.55.3-.89.45-1.03.45-.02,0-.09,0-.22.02-.13.01-.2.02-.21.02-.58,0-1.01-.21-1.31-.62-.24-.34-.37-.78-.37-1.29,0-.81.37-1.81,1.1-2.98.85-1.35,1.74-2.03,2.68-2.03.16,0,.4.07.71.21.41.18.62.39.63.65.01.11-.03.2-.13.27-.1.07-.18.1-.25.1"/>
        <path class="cls-5" d="m184.08,48.56c-.53,0-.93-.41-1.21-1.23-.19-.57-.29-1.12-.29-1.65,0-.5.06-1.1.18-1.82.18-1.05.43-1.57.75-1.57.25,0,.37.14.37.43,0,.14-.08.39-.24.75-.16.4-.27,1.08-.35,2.04.01.46.01.73,0,.81l.22,1.03c.14.46.36.68.64.68.07,0,.11,0,.13-.03.08-.11.18-.19.32-.26.12.1.17.2.17.28,0,.15-.1.28-.29.39-.16.09-.3.14-.42.14m-.5-8.22c-.12,0-.23-.05-.31-.16-.09-.11-.13-.2-.13-.3,0-.11.04-.22.13-.34.09-.11.19-.17.33-.17.29,0,.43.16.43.47s-.15.48-.45.48"/>
        <path class="cls-5" d="m186.61,48.39c-.48.04-.87-.12-1.16-.49-.27-.34-.4-.75-.4-1.26,0-.85.21-1.78.61-2.77.41-1,.79-1.5,1.14-1.5.32,0,.48.14.48.41,0,.08-.09.24-.27.48-.88,1.15-1.31,2.23-1.31,3.24,0,.87.21,1.3.65,1.3.65,0,1.29-.6,1.92-1.79.55-1.03.82-1.86.82-2.49,0-.9-.22-1.36-.67-1.36-.34,0-.71.18-1.1.55l-.12-.08c-.08-.04-.12-.11-.12-.2,0-.19.2-.38.6-.57.33-.16.58-.24.74-.24.9,0,1.37.69,1.4,2.08.02.67-.28,1.56-.89,2.66-.71,1.28-1.49,1.96-2.32,2.03m2.92-7.89c-.28.12-.76.32-1.45.58-.05.02-.11.03-.15.03-.17,0-.25-.07-.25-.21,0-.11.07-.19.21-.25.93-.4,1.6-.86,2.01-1.38.04-.05.11-.08.21-.08.17,0,.32.05.45.16.14.12.17.26.07.41-.13.21-.5.45-1.12.73"/>
        <path class="cls-5" d="m191.08,45.59l.14-.25c1.19-2.02,2.04-3.03,2.54-3.03.47,0,.78.35.94,1.05.05.53.1,1.05.15,1.58.09.87.14,1.36.17,1.48.13.77.31,1.16.56,1.16.1,0,.25-.1.43-.29l.3.1c.01.21-.08.39-.28.53-.15.11-.29.16-.42.16-.8,0-1.29-.9-1.48-2.71-.04-.43-.09-1.01-.18-1.75-.06-.46-.14-.68-.23-.68-.19,0-.65.59-1.39,1.75-.74,1.16-1.26,2.25-1.57,3.23-.08.26-.21.4-.41.4-.25,0-.36-.12-.34-.37,0-.09.18-1.27.53-3.53.02-.28.05-.67.09-1.17.04-.45.21-.68.5-.68.17,0,.28.06.34.18.04.13.07.25.1.37l-.49,2.48Z"/>
      </g>
      <path class="cls-3" d="m211.57,84.23c-.28.28-.42.62-.42,1.01s.14.73.42,1.02c.27.28.61.42,1.01.42s.73-.14,1.01-.42c.27-.28.41-.62.41-1.02s-.14-.73-.41-1.01c-.28-.28-.62-.42-1.01-.42s-.73.14-1.01.42Zm2.18,2.19c-.32.33-.72.49-1.18.49s-.85-.16-1.17-.49c-.32-.32-.48-.72-.48-1.18s.16-.85.49-1.17c.32-.32.71-.48,1.17-.48s.85.16,1.18.48c.32.32.49.71.49,1.17s-.16.85-.49,1.18Zm-.86-1.8c-.08-.04-.21-.07-.39-.07h-.27v.66h.29c.14,0,.24-.01.31-.04.12-.05.19-.15.19-.29s-.04-.22-.12-.27Zm-.34-.29c.23,0,.39.02.5.06.19.08.28.23.28.46,0,.16-.06.28-.18.36-.06.04-.15.07-.26.09.14.02.25.08.32.18.07.1.1.19.1.28v.13s0,.09,0,.14c0,.05.01.08.02.09v.02s-.29,0-.29,0c0,0,0-.01,0-.02,0,0,0-.01,0-.02v-.06s0-.14,0-.14c0-.21-.06-.35-.17-.42-.07-.04-.18-.06-.35-.06h-.25v.72h-.32v-1.82h.63Z"/>
    </g>
  </g>
</svg>