<?xml version="1.0" encoding="UTF-8"?>
<svg id="Capa_2" data-name="Capa 2" xmlns="http://www.w3.org/2000/svg" viewBox="0 0 193.63 39.25">
  <defs>
    <style>
      .cls-1 {
        fill: #dd6017;
      }

      .cls-2 {
        fill: #72492c;
      }
    </style>
  </defs>
  <g id="Capa_1-2" data-name="Capa 1">
    <g>
      <g>
        <path class="cls-2" d="m21.71.33v38.92h-1.14v-10.3H6.55l-5.17,10.3H0l5.79-11.52v-.24h.11L19.56.33h2.15ZM7.28,27.49h13.29V1.07L7.28,27.49Z"/>
        <path class="cls-2" d="m25.97.33v37.46h14.64v1.46h-15.81V.33h1.17Z"/>
      </g>
      <path class="cls-2" d="m47.3,39.25h-1.29V.33h12.08c2.46,0,4.57,1,6.31,2.98,1.74,1.99,2.61,4.38,2.61,7.18s-.87,5.19-2.61,7.16c-1.75,1.99-3.85,2.98-6.31,2.98h-10.79v18.62Zm0-20.08h10.79c2.11,0,3.91-.85,5.41-2.55,1.5-1.7,2.25-3.74,2.25-6.13s-.75-4.45-2.25-6.15c-1.5-1.7-3.3-2.55-5.41-2.55h-10.79v17.37Z"/>
      <path class="cls-2" d="m83.5,0v27.13h-1.14v-7.18h-14l-5.16,7.18h-1.38l5.79-8.03v-.17h.11L81.35,0h2.15Zm-14.4,18.93h13.26V.51l-13.26,18.42Z"/>
      <path class="cls-2" d="m111.13.33v38.92h-1.83L91.51,1.8v37.46h-1.17V.33h1.81l17.81,37.49V.33h1.16Z"/>
      <path class="cls-2" d="m129.8,39.25h-1.29V.33h12.08c2.45,0,4.56,1,6.32,2.98,1.74,1.99,2.61,4.38,2.61,7.18s-.87,5.19-2.61,7.16c-1.75,1.99-3.86,2.98-6.32,2.98h-10.79v18.62Zm0-20.08h10.79c2.1,0,3.91-.85,5.41-2.55,1.49-1.7,2.25-3.74,2.25-6.13s-.75-4.45-2.25-6.15c-1.5-1.7-3.31-2.55-5.41-2.55h-10.79v17.37Z"/>
      <path class="cls-2" d="m166,0v27.13h-1.14v-7.18h-14l-5.16,7.18h-1.37l5.78-8.03v-.17h.11L163.85,0h2.15Zm-14.41,18.93h13.27V.51l-13.27,18.42Z"/>
      <path class="cls-2" d="m193.63.33v38.92h-1.84L174,1.8v37.46h-1.16V.33h1.81l17.81,37.49V.33h1.16Z"/>
      <rect class="cls-1" x="116.86" y="18.44" width="3.99" height="4"/>
    </g>
  </g>
</svg>